<svg width="824" height="773" viewBox="0 0 824 773" fill="none" xmlns="http://www.w3.org/2000/svg">
<path d="M349.936 606.589C340.389 557.305 375.792 444.739 394.686 394.616C400.985 397.597 453.692 387.33 470.598 362.821C484.123 343.214 507.093 335.512 518.332 332.019C533.249 327.382 558.112 328.044 562.752 339.305L567.724 350.898C583.968 397.597 569.824 468.586 559.769 500.272L522.642 506.896C494.531 461.322 508.941 405.768 519.659 383.687C508.255 399.055 476.234 415.262 461.648 421.444C460.985 462.183 398.665 602.614 385.074 611.557C374.201 618.711 357.118 611.226 349.936 606.589Z" fill="#0A5100"/>
<path d="M373.746 614.706L369.105 623.141M354.516 609.36L345.66 632.746L344.901 634.75C344.058 636.775 343.474 640.17 344.901 643.064C345.907 645.104 347.913 646.894 351.533 647.779C360.285 649.916 393.198 652.233 408.56 653.124C411.213 653.458 416.253 652.188 415.191 644.438C414.13 636.687 408.56 629.595 402.261 626.733C397.151 624.411 383.974 620.807 369.105 623.141L354.516 609.36ZM364.463 624.059C366.024 623.686 367.573 623.381 369.105 623.141L364.463 624.059Z" stroke="#0A5100" stroke-width="5" stroke-linecap="round"/>
<path d="M527.936 505.098C527.605 514.925 528.5 534.273 530.927 537.232C533.918 540.876 537.574 541.206 559.841 534.25C577.654 528.684 584.766 528.618 589.086 527.956C592.078 527.497 595.734 527.094 595.734 519.674C595.734 510.398 592.078 504.104 580.778 502.778C571.738 501.718 558.844 507.195 553.527 510.066V501.122" stroke="#0A5100" stroke-width="5" stroke-linecap="round"/>
<path d="M485.398 171.654C451.259 175.104 384.175 189.645 388.948 220.208C389.68 222.803 391.782 226.943 395.701 230.838C399.475 234.59 404.935 238.113 412.48 239.808" stroke="#0A5100" stroke-width="5" stroke-linecap="round"/>
<path d="M395.701 230.839C406.376 247.449 437.67 283.527 477.443 294.955" stroke="#0A5100" stroke-width="5" stroke-linecap="round"/>
<path d="M477.187 294.954C479.618 291.688 486.008 285.785 493.509 285.505" stroke="#0A5100" stroke-width="5" stroke-linecap="round"/>
<path d="M493.508 285.505C493.287 276.177 485.418 252.122 455.711 230.526" stroke="#0A5100" stroke-width="5" stroke-linecap="round"/>
<path d="M447.121 238.258C450.204 233.267 459.675 222.67 472.892 220.219" stroke="#0A5100" stroke-width="5" stroke-linecap="round"/>
<path d="M520.998 228.809C522.429 230.501 525.293 235.104 525.293 239.976" stroke="#0A5100" stroke-width="5" stroke-linecap="round"/>
<path d="M520.66 300.118C527.43 299.787 541.568 298.794 543.966 297.47C546.962 295.815 547.628 295.815 547.628 292.504C547.628 289.195 520.66 294.822 520.66 284.229C523.102 281.802 527.053 276.351 523.324 273.967C519.595 271.584 511.782 278.492 508.342 282.243C504.791 285.995 496.823 291.909 493.36 285.553" stroke="#0A5100" stroke-width="5" stroke-linecap="round"/>
<path d="M478.046 294.822C481.042 303.539 491.829 319.184 511.005 312.035C530.182 304.885 530.981 301.111 528.983 300.118" stroke="#0A5100" stroke-width="5" stroke-linecap="round"/>
<path d="M643.204 298.531C647.864 297.257 658.049 291.332 661.511 277.82C664.973 264.308 660.291 264.242 657.517 265.897" stroke="#0A5100" stroke-width="5" stroke-linecap="round"/>
<path d="M625.894 288.75C627.336 281.242 632.418 266.759 641.206 268.878" stroke="#0A5100" stroke-width="5" stroke-linecap="round"/>
<path d="M629.556 276.495C623.431 271.461 619.681 283.008 618.571 289.412C611.648 291.531 609.029 301.555 608.585 306.302C624.607 307.945 635.993 303.642 643.204 298.531C647.618 295.402 650.468 291.969 651.858 289.412C655.298 280.249 660.313 261.129 652.857 257.95C645.4 254.77 643.314 261.923 643.204 265.897C644.003 274.906 639.32 284.885 636.879 288.749" stroke="#0A5100" stroke-width="5" stroke-linecap="round"/>
<path d="M533.024 300.01C547.448 313.478 582.754 333.591 608.585 306.302" stroke="#0A5100" stroke-width="5" stroke-linecap="round"/>
<path d="M530.447 301.826C530.447 308.079 528.901 322.33 522.716 329.315" stroke="#0A5100" stroke-width="5" stroke-linecap="round"/>
<path d="M395.579 316.431C381.966 334.805 362.907 376.335 395.579 395.462" stroke="#0A5100" stroke-width="5" stroke-linecap="round"/>
<path d="M802.761 237.399L810.492 224.514" stroke="#0A5100" stroke-width="5" stroke-linecap="round"/>
<path d="M806.54 244.135L820.8 243.472" stroke="#0A5100" stroke-width="5" stroke-linecap="round"/>
<path d="M803.62 252.003L812.21 263.17" stroke="#0A5100" stroke-width="5" stroke-linecap="round"/>
<path d="M522.818 656.613H290.776V770" stroke="#FF0000" stroke-width="5" stroke-linecap="round"/>
<path d="M684.151 543.56H494.269V681.811" stroke="#FF0000" stroke-width="5" stroke-linecap="round"/>
<path d="M809.633 385.083H655.602V569.75" stroke="#FF0000" stroke-width="5" stroke-linecap="round"/>
<path d="M782.412 264.459V410.944" stroke="#FF0000" stroke-width="5" stroke-linecap="round"/>
<path d="M782.412 213.346V225.802" stroke="#0A5100" stroke-width="5" stroke-linecap="round"/>
<path d="M481.517 303.146L291.35 325.02C269.352 307.397 274.675 281.088 280.086 270.136L412.275 254.291" stroke="#0A5100" stroke-width="5" stroke-linecap="round"/>
<path d="M546.782 297.865L612.049 291.593" stroke="#0A5100" stroke-width="5" stroke-linecap="round"/>
<path d="M659.756 284.66L702.493 281.689L759.809 255.71C752.918 248.394 756.698 241.878 759.568 239.546L702.493 226.231L476.547 245.048" stroke="#0A5100" stroke-width="5" stroke-linecap="round"/>
<path d="M259.608 270.409L278.98 268.324C265.545 298.423 280.946 318.9 290.777 326.867L268.167 330.175C249.269 307.159 254.14 281.403 259.608 270.409Z" fill="#0A5100"/>
<path d="M761.871 257.157C754.681 249.653 758.721 240.715 761.716 237.829L789.016 244.566L761.871 257.157Z" fill="#0A5100"/>
<path d="M703.113 226.231C695.982 235.284 685.999 258.954 703.113 281.21" stroke="#0A5100" stroke-width="5"/>
<path d="M538.879 177.451C544.561 173.954 587.306 177.324 595.616 123.557C609.843 123.723 617.58 112.069 606.724 107.081C595.151 101.114 596.02 90.1574 598.117 83.7019C601.45 75.2359 601.652 66.3474 600.933 64.4883" stroke="#0A5100" stroke-width="5" stroke-linecap="round"/>
<path d="M583.073 104.141C584.688 104.16 586.02 102.212 586.048 99.7902C586.076 97.3686 584.791 95.3901 583.176 95.3712C581.562 95.3522 580.23 97.3001 580.202 99.7217C580.173 102.143 581.459 104.122 583.073 104.141Z" fill="#0A5100"/>
<path d="M575.137 86.3943C577.511 83.8567 583.649 80.145 589.211 85.5972" stroke="#0A5100" stroke-width="5" stroke-linecap="round"/>
<path d="M559.012 135.802C563.375 142.515 568.164 144.421 577.469 140.089" stroke="#0A5100" stroke-width="5" stroke-linecap="round"/>
<path d="M523.298 88.7471C522.287 90.9668 521.441 96.0059 526.139 98.4043" stroke="#0A5100" stroke-width="5" stroke-linecap="round"/>
<path d="M473.222 65.9528C467.686 96.2383 485.006 119.036 497.562 136.562C510.973 129.317 532.952 112.088 524.522 110.229C515.662 108.274 506.318 84.1067 514.922 76.7138C525.016 68.0401 534.116 81.1638 535.85 91.115L543.981 77.0542C541.681 67.2196 540.78 49.9681 555.567 59.6394C570.353 69.3105 592.043 66.7772 601.04 64.3016C618.779 51.6046 646.338 21.9881 614.667 5.09873C588.325 -8.94856 554.047 8.81102 533.123 24.7689C518.956 21.0288 480.769 24.6597 473.222 65.9528Z" fill="#0A5100"/>
<path d="M498.547 134.533C504.951 142.242 508.132 148.644 507.736 161.905" stroke="#0A5100" stroke-width="5" stroke-linecap="round"/>
<path d="M491.423 179.658C489.181 171.838 487.867 156.921 500.548 159.821C516.398 163.444 548.704 179.118 546.338 187.806" stroke="#0A5100" stroke-width="5" stroke-linecap="round"/>
<path d="M546.339 200.031C557.936 210.769 560.513 217.641 562.231 230.527" stroke="#0A5100" stroke-width="5" stroke-linecap="round"/>
<path d="M3 548.329C18.7535 546.894 55.8745 556.288 80.6715 604.601C81.3201 605.864 83.1489 605.898 83.795 604.634C109.23 554.84 140.447 504.33 239.119 565.146C240.636 566.081 242.627 564.388 241.875 562.772C225.866 528.341 217.215 462.679 291.814 430.104C293.311 429.451 293.245 427.227 291.678 426.768L272.381 421.128C270.612 420.611 270.805 418.184 272.641 418.019C292.519 416.228 320.562 417.395 310.907 429.123C299.635 442.816 296.863 451.475 299.611 465.771" stroke="#FF7E21" stroke-width="5" stroke-linecap="round"/>
</svg>
